# xmcd
#
# Track frame offsets:
# 150
# 16700
# 32137
# 48450
# 62325
# 77100
# 89112
# 101850
# 115562
# 129250
# 142800
# 156525
# 169900
# 183975
# 198300
# 211775
#
# Disc length: 3007 seconds
#
#
# Revision: 0
# Processed by: cddbd v1.5.1PL0 Copyright (c) Steve Scherf et al.
# Submitted via: FreeRIP 2.931 
#
DISCID=d20bbd10
DTITLE=St Louis Jimmy Oden - St Louis Jimmy Oden
DYEAR=1900
DGENRE=Blues
TTITLE0=Patrol Wagon Blues
TTITLE1=Warning Spirit Blues
TTITLE2=My Dream Blues
TTITLE3=Six feet in the ground
TTITLE4=Pipe laying blues
TTITLE5=Some sweet day
TTITLE6=Silk worm Blues
TTITLE7=The road to ruin
TTITLE8=Thick and thin
TTITLE9=Come day go day
TTITLE10=Lost ball bllues
TTITLE11=St Louis woman blues
TTITLE12=Cant stand your evil ways
TTITLE13=My story blues
TTITLE14=Florida Hurricane
TTITLE15=So nice and kind
EXTD=
EXTT0=
EXTT1=
EXTT2=
EXTT3=
EXTT4=
EXTT5=
EXTT6=
EXTT7=
EXTT8=
EXTT9=
EXTT10=
EXTT11=
EXTT12=
EXTT13=
EXTT14=
EXTT15=
PLAYORDER=
